<?xml version="1.0"?>
<svg width="1280" height="844" xmlns="http://www.w3.org/2000/svg" xmlns:svg="http://www.w3.org/2000/svg" preserveAspectRatio="xMidYMid meet" version="1.0">
 <metadata>Created by potrace 1.15, written by Peter Selinger 2001-2017</metadata>
 <g class="layer">
  <title>Layer 1</title>
  <g fill="#000000" id="svg_1" transform="matrix(0.1 0 0 -0.1 0 0)">
   <path d="m7613,-34c-15,-19 -61,-93 -101,-163c-40,-71 -100,-165 -133,-208c-34,-44 -88,-117 -122,-162c-37,-50 -74,-89 -94,-98c-91,-43 -317,-72 -633,-82l-205,-6l-135,108c-74,59 -208,181 -297,271c-92,93 -173,166 -188,170c-43,11 -72,-3 -84,-38c-6,-18 -15,-100 -21,-183c-6,-82 -28,-267 -50,-410c-63,-410 -71,-487 -79,-700c-10,-236 -23,-285 -99,-363c-79,-81 -105,-87 -397,-87c-137,0 -256,-4 -262,-8c-7,-5 -13,-17 -13,-27c0,-85 536,-527 799,-659c79,-40 210,-80 349,-106c45,-9 110,-26 145,-40c85,-32 236,-60 484,-90c112,-14 225,-30 251,-36c63,-13 110,-42 123,-77c57,-146 99,-663 69,-850c-6,-35 -29,-107 -51,-160c-87,-210 -145,-262 -219,-194c-25,23 -35,48 -65,167c-52,206 -90,315 -156,452c-94,196 -188,276 -303,258c-80,-14 -114,-44 -169,-150c-110,-211 -190,-630 -232,-1215c-8,-113 -15,-279 -15,-369l0,-164l-93,7c-173,12 -258,50 -373,166c-186,190 -236,340 -235,710c0,253 12,352 77,628c51,218 75,582 55,822c-9,117 -13,130 -52,207c-189,375 -596,355 -1104,-54c-284,-228 -696,-730 -939,-1141c-168,-284 -306,-604 -294,-683c2,-20 19,-4 109,106c296,363 676,752 1076,1103c300,263 516,401 643,410c115,8 150,-37 150,-195c-1,-146 -38,-304 -181,-758c-133,-423 -159,-546 -159,-751c0,-187 34,-331 117,-499c104,-209 257,-373 633,-680c266,-217 395,-334 383,-346c-4,-4 -132,-15 -283,-24c-341,-19 -561,-40 -627,-60c-58,-17 -103,-61 -125,-121l-13,-37l-170,6c-348,11 -859,-16 -1205,-64c-1259,-175 -2211,-736 -2959,-1744c-135,-181 -136,-184 -55,-95c227,248 440,456 624,609c734,614 1498,930 2445,1012c179,16 652,16 860,0c534,-40 997,-115 2055,-335c278,-58 624,-128 770,-156c1162,-224 1961,-263 2725,-135c1170,198 2186,830 3117,1938l103,122l-125,-115c-550,-504 -1112,-840 -1780,-1063c-591,-197 -1180,-290 -1935,-304l-320,-6l45,44c25,24 56,66 70,93c33,65 87,109 167,135c83,27 238,42 361,34c52,-3 92,-2 92,3c0,5 -47,33 -104,62c-101,51 -166,105 -166,137c0,55 206,114 296,85c22,-7 96,-39 166,-72c71,-33 133,-58 140,-56c14,5 -145,190 -248,288c-209,199 -374,284 -549,282c-187,-1 -331,-97 -577,-385c-117,-137 -158,-166 -230,-167c-74,0 -95,50 -85,204c6,106 25,194 103,481c144,535 195,748 239,1011c80,475 96,932 40,1120c-37,124 -121,213 -212,221c-47,5 -50,3 -87,-37c-23,-26 -72,-113 -127,-227c-130,-271 -175,-328 -292,-367c-71,-24 -116,-9 -187,62c-136,137 -249,468 -252,736c-1,153 6,171 89,224c38,24 239,128 448,232c529,263 719,380 902,554c97,93 156,172 217,294l36,72l-42,0c-24,0 -110,-16 -192,-36c-177,-44 -199,-41 -281,37c-99,94 -157,245 -200,524c-37,237 -101,403 -267,692c-38,67 -100,190 -138,274c-99,223 -130,254 -187,185zm-201,-1362l-37,-69l0,-140c0,-121 3,-146 21,-186c22,-47 93,-129 112,-129c18,0 59,145 72,251c14,122 4,165 -60,258c-27,39 -51,75 -56,82c-5,9 17,11 97,6c175,-9 352,-82 461,-188c64,-63 70,-85 41,-147c-28,-60 -132,-156 -215,-196c-98,-49 -250,-86 -348,-86c-81,0 -199,25 -275,59c-92,41 -184,161 -185,242c0,76 86,168 223,240c73,38 178,81 184,75c2,-1 -14,-34 -35,-72zm-967,16c105,-15 186,-46 262,-99c83,-58 169,-150 178,-189c9,-42 -28,-131 -72,-174c-52,-51 -186,-125 -249,-138c-191,-40 -435,22 -650,166c-94,62 -134,107 -134,149c0,93 192,226 382,266c100,20 158,24 158,10c0,-5 -12,-35 -27,-67c-25,-54 -28,-69 -28,-184c0,-114 2,-130 26,-180c25,-54 67,-102 122,-142l27,-20l22,49c41,90 36,339 -9,428c-8,16 -40,54 -71,83c-63,59 -63,60 63,42z" fill="#aad4ff" id="svg_2"/>
  </g>
 </g>
</svg>