<?xml version="1.0"?>
<svg width="20" height="20" xmlns="http://www.w3.org/2000/svg" xmlns:svg="http://www.w3.org/2000/svg">
 <g class="layer">
  <title>Layer 1</title>
  <path clip-rule="evenodd" d="m10,1.04c-2.19,0 -3.96,1.77 -3.96,3.96c0,2.19 1.77,3.96 3.96,3.96c2.19,0 3.96,-1.77 3.96,-3.96c0,-2.19 -1.77,-3.96 -3.96,-3.96zm-2.71,3.96c0,-1.5 1.21,-2.71 2.71,-2.71c1.5,0 2.71,1.21 2.71,2.71c0,1.5 -1.21,2.71 -2.71,2.71c-1.5,0 -2.71,-1.21 -2.71,-2.71z" fill="#aad4ff" fill-rule="evenodd" id="svg_1"/>
  <path clip-rule="evenodd" d="m10,10.21c-1.93,0 -3.7,0.44 -5.02,1.18c-1.3,0.73 -2.27,1.83 -2.27,3.19l0,0.09c0,0.97 0,2.18 1.06,3.05c0.53,0.43 1.26,0.73 2.25,0.93c1,0.2 2.29,0.31 3.98,0.31c1.69,0 2.98,-0.11 3.98,-0.31c0.99,-0.2 1.72,-0.5 2.25,-0.93c1.06,-0.87 1.06,-2.08 1.06,-3.05l0,-0.09c0,-1.36 -0.97,-2.46 -2.27,-3.19c-1.32,-0.74 -3.09,-1.18 -5.02,-1.18zm-6.04,4.37c0,-0.71 0.52,-1.48 1.63,-2.1c1.1,-0.62 2.66,-1.02 4.41,-1.02c1.75,0 3.31,0.4 4.41,1.02c1.11,0.62 1.63,1.39 1.63,2.1c0,1.09 -0.03,1.71 -0.6,2.17c-0.31,0.25 -0.83,0.5 -1.71,0.68c-0.88,0.17 -2.08,0.28 -3.73,0.28c-1.65,0 -2.85,-0.11 -3.73,-0.28c-0.88,-0.18 -1.4,-0.43 -1.71,-0.68c-0.57,-0.46 -0.6,-1.08 -0.6,-2.17z" fill="#aad4ff" fill-rule="evenodd" id="svg_2"/>
 </g>
</svg>