<?xml version="1.0"?>
<svg width="20" height="20" xmlns="http://www.w3.org/2000/svg" xmlns:svg="http://www.w3.org/2000/svg">
 <g class="layer">
  <title>Layer 1</title>
  <path clip-rule="evenodd" d="m11.89,3.84c0.02,0.01 0.03,0.02 0.04,0.03l3.34,2.97c0.63,0.56 1.14,1.02 1.5,1.43c0.37,0.44 0.64,0.92 0.64,1.5c0,0.58 -0.27,1.06 -0.64,1.5c-0.36,0.41 -0.87,0.87 -1.5,1.43l-3.34,2.97c-0.01,0.01 -0.02,0.02 -0.04,0.03c-0.27,0.24 -0.52,0.46 -0.74,0.61c-0.21,0.14 -0.6,0.34 -1.04,0.15c-0.43,-0.2 -0.54,-0.62 -0.57,-0.88c-0.04,-0.26 -0.04,-0.59 -0.04,-0.96c0,-0.01 0,-0.03 0,-0.04l0,-1.31c-1.21,0.09 -2.44,0.41 -3.51,0.93c-1.26,0.61 -2.27,1.49 -2.81,2.53c-0.14,0.25 -0.43,0.38 -0.7,0.31c-0.28,-0.07 -0.48,-0.32 -0.48,-0.6c0,-3.94 1.15,-6.5 2.8,-8.07c1.43,-1.38 3.18,-1.94 4.7,-2.06l0,-1.35c0,-0.02 0,-0.03 0,-0.04c0,-0.37 0,-0.7 0.04,-0.96c0.03,-0.26 0.14,-0.68 0.57,-0.88c0.44,-0.2 0.83,0.01 1.04,0.15c0.22,0.15 0.47,0.37 0.74,0.61zm-1.14,0.66c0.1,0.08 0.21,0.18 0.35,0.3l3.31,2.95c0.66,0.59 1.12,0.99 1.41,1.33c0.28,0.33 0.34,0.53 0.34,0.69c0,0.16 -0.06,0.36 -0.34,0.69c-0.29,0.34 -0.75,0.74 -1.41,1.33l-3.31,2.95c-0.14,0.12 -0.25,0.22 -0.35,0.3c0,-0.13 0,-0.28 0,-0.46l0,-1.95c0,-0.35 -0.28,-0.63 -0.62,-0.63c-1.6,0 -3.26,0.38 -4.69,1.08c-0.76,0.37 -1.47,0.84 -2.08,1.4c0.31,-2.54 1.22,-4.17 2.3,-5.21c1.35,-1.29 3.06,-1.73 4.47,-1.73c0.34,0 0.62,-0.28 0.62,-0.63l0,-1.95c0,-0.19 0,-0.34 0,-0.46z" fill="#aad4ff" fill-rule="evenodd" id="svg_1"/>
 </g>
</svg>